# xmcd
#
# Track frame offsets: 
#        150
#        15467
#        44145
#        76695
#        104311
#        132111
#        166777
#        202066
#        237107
#        265495
#        310232
#
# Disc length: 4615 seconds
#
# Revision: 0
# Processed by: cddbd v1.5.2PL0 Copyright (c) Steve Scherf et al.
# Submitted via: ExactAudioCopyFreeDBPlugin 1.0
#
DISCID=8b12050b
DTITLE=Dorrey Lin Lyes and soul sexy - Dorrey Lin Lyes
DYEAR=1900
DGENRE=Soul
TTITLE0=God is amazing
TTITLE1=Great is thy faithfulness
TTITLE2=Summertime
TTITLE3=God bless the child
TTITLE4=Four woman
TTITLE5=Rock me , baby
TTITLE6=Nature boy
TTITLE7=My funny Valentine
TTITLE8=Somewhere over the rainbow
TTITLE9=Put a spell on you
TTITLE10=Not a victim
EXTD=
EXTT0=
EXTT1=
EXTT2=
EXTT3=
EXTT4=
EXTT5=
EXTT6=
EXTT7=
EXTT8=
EXTT9=
EXTT10=
PLAYORDER=
